<mxfile host="app.diagrams.net" modified="2024-04-20T06:24:14.574Z" agent="Mozilla/5.0 (Windows NT 10.0; Win64; x64) AppleWebKit/537.36 (KHTML, like Gecko) Chrome/123.0.0.0 Safari/537.36" version="24.2.5" etag="lsK5zBca-gSLBkz_oW7e" type="github">
  <diagram name="Page-1" id="zNqxhUMVDsizr8bhQPPV">
    <mxGraphModel>
      <root>
        <mxCell id="0" />
        <mxCell id="1" parent="0" />
      </root>
    </mxGraphModel>
  </diagram>
</mxfile>
